<?xml version="1.0" standalone="no"?>
<!DOCTYPE svg PUBLIC "-//W3C//DTD SVG 20010904//EN"
 "http://www.w3.org/TR/2001/REC-SVG-20010904/DTD/svg10.dtd">
<svg version="1.0" xmlns="http://www.w3.org/2000/svg"
 width="512.000000pt" height="512.000000pt" viewBox="0 0 512.000000 512.000000"
 preserveAspectRatio="xMidYMid meet">
<metadata>
Created by potrace 1.14, written by Peter Selinger 2001-2017
</metadata>
<g transform="translate(0.000000,512.000000) scale(0.100000,-0.100000)"
fill="#000000" stroke="none">
<path d="M712 4890 c-185 -44 -349 -174 -429 -340 -23 -47 -47 -107 -54 -135
-18 -71 -22 -3593 -4 -3672 7 -29 11 -53 9 -53 -9 0 66 -162 93 -201 93 -134
258 -239 419 -267 29 -5 830 -8 1830 -7 1403 1 1791 4 1834 14 30 7 93 31 139
53 114 54 231 169 284 278 79 161 73 1 72 2012 -1 1955 3 1828 -60 1963 -85
183 -236 304 -450 361 -16 5 -836 9 -1821 9 -1651 2 -1796 0 -1862 -15z m1634
-1262 l-1 -853 -852 -1 -853 -1 0 763 c0 856 -3 816 72 887 23 20 55 41 72 46
17 5 374 10 797 10 l765 1 0 -852z m1985 841 c52 -16 102 -60 128 -111 20 -42
21 -51 21 -813 l0 -772 -852 1 -853 1 -1 853 -1 852 760 0 c540 0 771 -3 798
-11z m-1985 -2973 l-1 -851 -770 -2 -770 -2 -44 22 c-54 28 -100 82 -112 133
-9 40 -13 1537 -4 1546 3 2 387 5 853 5 l848 0 0 -851z m2134 80 c-1 -744 -2
-772 -21 -810 -26 -53 -53 -81 -103 -105 -40 -19 -64 -20 -812 -20 l-771 -1 2
847 c1 467 2 851 3 854 1 3 385 6 852 6 l850 0 0 -771z"/>
<path d="M1405 4139 c-50 -24 -102 -82 -115 -128 -5 -20 -10 -66 -10 -103 l0
-68 -67 0 c-92 0 -133 -13 -181 -58 -88 -82 -95 -215 -14 -298 48 -49 93 -67
180 -69 40 -1 74 -4 76 -6 3 -2 5 -38 7 -79 1 -58 7 -86 26 -121 68 -128 237
-153 337 -50 44 45 64 104 62 184 -1 32 2 61 6 63 4 3 40 7 80 9 90 4 123 16
170 62 83 81 84 213 1 298 -46 47 -70 56 -172 64 l-84 6 -2 75 c-1 41 -9 91
-17 111 -46 106 -180 157 -283 108z"/>
<path d="M3238 3828 c-40 -11 -100 -63 -122 -106 -61 -120 15 -275 147 -301
30 -6 199 -9 397 -8 305 2 349 5 377 20 154 83 162 287 16 379 -38 23 -39 23
-408 25 -222 1 -385 -3 -407 -9z"/>
<path d="M1137 1985 c-92 -32 -147 -110 -143 -205 4 -79 17 -103 112 -201 l86
-87 -86 -86 c-49 -48 -95 -104 -106 -128 -65 -142 40 -298 200 -298 58 1 113
33 205 124 l89 87 85 -84 c117 -114 131 -122 217 -122 60 0 76 4 112 28 63 42
95 99 96 172 0 82 -20 118 -120 217 -46 46 -84 86 -84 89 0 3 36 42 80 88 92
95 111 126 115 190 7 126 -96 233 -219 225 -75 -4 -97 -16 -187 -105 -73 -72
-93 -87 -107 -80 -9 6 -48 42 -86 80 -38 39 -84 77 -102 86 -45 21 -112 26
-157 10z"/>
<path d="M3247 2015 c-57 -15 -121 -72 -138 -124 -38 -113 5 -217 112 -271 36
-19 58 -20 417 -17 l378 2 42 28 c112 74 134 231 45 323 -67 68 -68 68 -458
70 -249 1 -364 -2 -398 -11z"/>
<path d="M3247 1375 c-177 -45 -205 -294 -44 -386 l42 -24 375 -2 c422 -2 420
-3 488 74 39 45 50 80 47 154 -3 78 -48 143 -125 177 -30 14 -90 16 -385 18
-249 1 -364 -2 -398 -11z"/>
</g>
</svg>
